<svg id="Capa_1" enable-background="new 0 0 512 512" height="512" viewBox="0 0 512 512" width="512" xmlns="http://www.w3.org/2000/svg"><g><path d="m504 178.73v325.27h-496v-325.27c139.62-101.49 83.73-60.65 239.07-175.78 2.64-1.96 5.77-2.95 8.93-2.95 1.57 0 3.14.24 4.65.74.38.12.75.26 1.12.41.37.16.73.32 1.09.51.36.18.71.38 1.05.6.35.21.69.44 1.02.69 152.23 112.8 96.58 72.23 239.07 175.78z" fill="#ff7d47"/><path d="m504 178.73v325.27h-248v-504c1.57 0 3.14.24 4.65.74.38.12.75.26 1.12.41.37.16.73.32 1.09.51.36.18.71.38 1.05.6.35.21.69.44 1.02.69 152.23 112.8 96.58 72.23 239.07 175.78z" fill="#ff7d47"/><path d="m399 15v353c0 8.28-6.72 15-15 15h-256c-8.28 0-15-6.72-15-15v-353c0-8.28 6.72-15 15-15h256c8.28 0 15 6.72 15 15z" fill="#eef4ff"/><path d="m399 15v353c0 8.28-6.72 15-15 15h-128v-383h128c8.28 0 15 6.72 15 15z" fill="#d9e6fc"/><path d="m232.143 331.9-208.3-152.017c-4.561-3.329-10.604-3.814-15.639-1.256-5.033 2.559-8.204 7.727-8.204 13.373v305c0 8.326 6.767 15 14.998 15 3.138 0 6.257-.983 8.881-2.91l208.3-152.983c8.146-5.984 8.179-18.211-.036-24.207z" fill="#ffe278"/><path d="m503.796 178.628c-5.033-2.559-11.077-2.072-15.639 1.256l-208.3 152.016c-8.164 5.958-8.234 18.185-.036 24.206l208.3 152.983c2.624 1.927 5.743 2.91 8.881 2.91 8.233 0 14.998-6.676 14.998-15v-304.999c0-5.646-3.171-10.814-8.204-13.372z" fill="#ffb454"/><path d="m.75 501.67c2.02 6.16 7.77 10.33 14.25 10.33h482c6.48 0 12.23-4.17 14.25-10.33s-.14-12.92-5.37-16.76l-241-177c-5.28-3.88-12.48-3.88-17.76 0l-241 177c-5.23 3.84-7.39 10.6-5.37 16.76z" fill="#ff9d21"/><path d="m.75 501.67c2.02 6.16 7.77 10.33 14.25 10.33h241v-207c-3.12 0-6.24.97-8.88 2.91l-241 177c-5.23 3.84-7.39 10.6-5.37 16.76z" fill="#ffb454"/></g></svg>